<?xml version="1.0" standalone="no"?>
<!DOCTYPE svg PUBLIC "-//W3C//DTD SVG 1.1//EN" "http://www.w3.org/Graphics/SVG/1.1/DTD/svg11.dtd" >
<!--
2013-9-30: Created.
-->
<svg>
<metadata>
Created by iconfont
</metadata>
<defs>

<font id="iconfont" horiz-adv-x="1024" >
  <font-face
    font-family="iconfont"
    font-weight="500"
    font-stretch="normal"
    units-per-em="1024"
    ascent="896"
    descent="-128"
  />
    <missing-glyph />
    
    <glyph glyph-name="x" unicode="x" horiz-adv-x="1001"
d="M281 543q-27 -1 -53 -1h-83q-18 0 -36.5 -6t-32.5 -18.5t-23 -32t-9 -45.5v-76h912v41q0 16 -0.5 30t-0.5 18q0 13 -5 29t-17 29.5t-31.5 22.5t-49.5 9h-133v-97h-438v97zM955 310v-52q0 -23 0.5 -52t0.5 -58t-10.5 -47.5t-26 -30t-33 -16t-31.5 -4.5q-14 -1 -29.5 -0.5
t-29.5 0.5h-32l-45 128h-439l-44 -128h-29h-34q-20 0 -45 1q-25 0 -41 9.5t-25.5 23t-13.5 29.5t-4 30v167h911zM163 247q-12 0 -21 -8.5t-9 -21.5t9 -21.5t21 -8.5q13 0 22 8.5t9 21.5t-9 21.5t-22 8.5zM316 123q-8 -26 -14 -48q-5 -19 -10.5 -37t-7.5 -25t-3 -15t1 -14.5
t9.5 -10.5t21.5 -4h37h67h81h80h64h36q23 0 34 12t2 38q-5 13 -9.5 30.5t-9.5 34.5q-5 19 -11 39h-368zM336 498v228q0 11 2.5 23t10 21.5t20.5 15.5t34 6h188q31 0 51.5 -14.5t20.5 -52.5v-227h-327z" />
    

    
    <glyph glyph-name="more" unicode="&#58935;" d="M147.012 465.109c-44.791 0-81.108-36.304-81.108-81.109 0-44.779 36.316-81.108 81.108-81.108 44.792 0 81.109 36.329 81.109 81.108 0 44.805-36.316 81.109-81.109 81.109zM511.999 465.109c-44.791 0-81.108-36.304-81.108-81.109 0-44.779 36.316-81.108 81.108-81.108 44.792 0 81.109 36.329 81.109 81.108 0 44.805-36.317 81.109-81.109 81.109zM876.987 465.109c-44.791 0-81.108-36.304-81.108-81.109 0-44.779 36.316-81.108 81.108-81.108s81.108 36.329 81.108 81.108c-0.001 44.805-36.317 81.109-81.108 81.109z"  horiz-adv-x="1024" />

    
    <glyph glyph-name="sousuo" unicode="&#58931;" d="M401.977 160.251c-88.722 0-172.124 34.636-234.844 97.526-62.725 62.868-97.271 146.454-97.271 235.358s34.547 172.491 97.277 235.361c62.715 62.887 146.118 97.522 234.839 97.522 88.72 0 172.135-34.634 234.882-97.522 62.704-62.875 97.236-146.461 97.236-235.361 0-88.902-34.53-172.487-97.231-235.358-62.75-62.893-146.166-97.526-234.886-97.526zM401.977 774.796c-75.012 0-145.534-29.29-198.573-82.474-109.586-109.835-109.586-288.54-0.004-398.369 53.043-53.188 123.564-82.478 198.578-82.478 75.016 0 145.553 29.291 198.621 82.478 109.529 109.827 109.529 288.537-0.005 398.369-53.063 53.182-123.601 82.474-198.617 82.474zM932.538-62.228c-6.566 0-13.129 2.508-18.133 7.524l-307.735 308.497c-9.99 10.014-9.969 26.231 0.045 36.221s26.23 9.969 36.221-0.045l307.735-308.497c9.99-10.014 9.969-26.231-0.045-36.221-4.999-4.987-11.545-7.479-18.088-7.479z"  horiz-adv-x="1024" />

    
    <glyph glyph-name="new" unicode="&#58983;" d="M889.6 624l-758.4 0c-41.6 0-73.6-32-73.6-73.6l0-361.6c0-41.6 32-73.6 73.6-73.6l758.4 0c41.6 0 73.6 32 73.6 73.6l0 361.6C963.2 592 931.2 624 889.6 624zM320 249.6l-51.2 0-99.2 195.2 0-195.2-32 0 0 233.6 44.8 0 102.4-201.6 3.2 0 0 201.6 32 0L320 249.6zM400 384l124.8 0 0-32-124.8 0c0-3.2 0-3.2 0-6.4l0 0c0-41.6 12.8-60.8 38.4-60.8l89.6 0 0-32-89.6 0c-19.2 0-35.2 6.4-48 22.4-12.8 16-19.2 41.6-19.2 70.4 0 12.8 0 28.8 0 54.4 0 54.4 35.2 76.8 70.4 83.2l0 0c12.8 0 80 0 86.4 0l0-32c-28.8 0-73.6 0-83.2 0-12.8-3.2-41.6-12.8-41.6-51.2C400 393.6 400 390.4 400 384zM816 249.6l-44.8 0-44.8 185.6-51.2-185.6-48 0-67.2 233.6 35.2 0 57.6-192 3.2 0 51.2 192 38.4 0 51.2-201.6 60.8 201.6 32 0L816 249.6z"  horiz-adv-x="1024" />

    
    <glyph glyph-name="wodemeishi0101" unicode="&#58910;" d="M511.709381 823.513082c-242.100944 0-439.214277-196.992583-439.214277-439.2153 0-242.2176 197.080587-439.180508 439.214277-439.180508 242.187925 0 439.210183 196.962907 439.210183 439.180508C950.918541 626.519476 753.925958 823.513082 511.709381 823.513082zM518.557346 525.892661c0-49.002041-37.592177-89.860611-87.545892-99.245352l-0.00307 0 0-366.630145c0-11.189853-9.800203-20.25123-21.892613-20.25123-12.089339 0-21.892613 9.061376-21.892613 20.25123L387.223159 426.647309c-49.963948 9.381671-87.544869 50.247404-87.544869 99.245352l0 141.789307c0 11.189853 9.79918 20.24202 21.878287 20.24202 12.088316 0 21.894659-9.061376 21.894659-20.24202L343.451236 530.676617c0-28.492938 18.328437-52.493561 43.770899-61.526285L387.222135 667.689131c0 11.189853 9.800203 20.24202 21.892613 20.24202 12.099572 0 21.895683-9.05933 21.895683-20.24202l0-198.538799c25.430182 9.035794 43.770899 33.033347 43.770899 61.526285L474.78133 667.681968c0 11.189853 9.800203 20.24202 21.87931 20.24202 12.098549 0 21.895683-9.061376 21.895683-20.24202L518.556323 525.892661zM631.040187 323.333292l0-263.308965c0-11.189853-8.755408-20.252253-19.540032-20.252253-10.797927 0-19.536962 9.0624-19.536962 20.252253L591.963193 667.681968c0 11.189853 8.734942 20.24202 19.536962 20.24202l19.540032 0c0 0 117.254517-125.984343 117.254517-364.590696L631.040187 323.333292z"  horiz-adv-x="1024" />

    
    <glyph glyph-name="icon-arrow-left2" unicode="&#58980;" d="M747.245 814.936c-28.497 29.315-74.739 29.315-103.307 0l-367.236-378.011c-28.483-29.367-28.483-76.982 0-106.291l367.236-377.997c28.562-29.367 74.806-29.367 103.307 0 28.546 29.325 28.546 76.929 0 106.304l-315.6 324.841 315.599 324.803c28.545 29.367 28.544 76.973 0 106.356v0z"  horiz-adv-x="1024" />

    
    <glyph glyph-name="icon-arrow-right2" unicode="&#58984;" d="M276.755-46.936c28.497-29.315 74.739-29.315 103.307 0l367.236 378.011c28.483 29.367 28.483 76.982 0 106.291l-367.236 377.997c-28.562 29.367-74.806 29.367-103.307 0-28.546-29.325-28.546-76.929 0-106.304l315.6-324.841-315.599-324.803c-28.545-29.367-28.544-76.973 0-106.356v0z"  horiz-adv-x="1024" />

    
    <glyph glyph-name="jia" unicode="&#59029;" d="M831.961754 373.766938 192.037223 373.766938c-5.65172 0-10.233062 4.582365-10.233062 10.233062 0 5.65172 4.581342 10.233062 10.233062 10.233062l639.924531 0c5.65172 0 10.233062-4.581342 10.233062-10.233062C842.194816 378.34828 837.613474 373.766938 831.961754 373.766938zM522.23255 703.962266l0-639.924531c0-5.65172-4.582365-10.233062-10.233062-10.233062-5.65172 0-10.233062 4.581342-10.233062 10.233062l0 639.924531c0 5.65172 4.581342 10.233062 10.233062 10.233062C517.650185 714.195328 522.23255 709.613986 522.23255 703.962266z"  horiz-adv-x="1024" />

    
    <glyph glyph-name="huaban" unicode="&#58923;" d="M1270.645 410.438v-229.5c0-28.125 1.125-59.625 2.813-95.062h-55.125c1.687 33.188 2.813 65.25 2.813 95.063v179.438c-29.813-28.125-62.438-54.563-97.313-79.313-9 15.75-19.125 30.938-31.5 45 29.813 15.75 65.25 43.313 106.875 83.25 41.063 39.375 67.5 70.875 77.625 93.375 15.75-12.375 37.125-23.063 63.562-31.5-22.5-14.063-45-34.313-69.75-60.75zM1317.895 571.313c0-19.125 1.125-39.375 2.813-60.75h-57.937c1.687 21.375 2.813 41.063 2.813 60.75h-73.688c-29.812 0-59.625-1.125-89.437-2.813v47.25c29.812-1.688 59.625-2.813 89.437-2.813h73.688c0 28.125-1.125 52.875-2.813 73.687h60.75c-3.375-21.375-5.063-45.563-5.063-73.687h133.875v79.875h55.125c-1.688-21.375-2.813-47.25-2.813-79.313h105.188c31.5 0 59.063 1.125 81.563 2.813v-47.25c-23.063 1.688-50.063 2.813-81.563 2.813h-105.188c0-15.75 1.125-36 2.813-60.75h-55.125v60.187h-134.438zM1473.707 416.063v-73.688c19.125 10.688 42.75 28.688 69.75 54 27 25.313 47.25 47.813 59.062 67.5 15.75-14.063 34.875-26.438 57.938-37.125-21.375-12.375-42.188-28.688-63.563-48.938-21.375-20.25-62.438-51.188-123.75-93.375v-108.563c0-19.125 11.25-29.25 34.313-29.25h81.562c17.437 0 29.812 3.938 37.125 11.813 6.75 7.875 12.938 27.563 18.563 59.063 17.438-12.375 36-20.25 55.125-23.625-12.375-42.188-24.188-67.5-35.438-76.5-11.25-9-28.687-12.938-51.187-12.938h-129.375c-40.5 0-60.75 14.063-60.75 42.188v108c-17.438-10.688-48.375-27-92.25-50.063-9 15.75-21.375 30.938-37.125 45 37.125 10.688 79.875 30.938 129.375 60.75v105.75c0 29.813-1.125 55.125-2.813 76.5h55.125c-1.125-21.375-1.687-46.688-1.687-76.5zM1938.895 486.938c-7.875-17.438-18-40.5-30.375-68.625 24.75 0 42.188 1.125 52.875 2.813v-39.375c-23.063 1.688-47.25 2.813-73.688 2.813v-79.313c23.063 0 45 1.125 65.813 2.813v-39.375c-24.75 1.688-47.25 2.813-68.625 2.813-1.687-37.125-8.438-69.188-19.688-97.313-11.25-28.125-29.25-59.625-54-95.063-10.688 10.688-24.75 18.563-42.188 23.625 24.75 24.75 43.313 51.75 55.125 81.563 12.375 29.813 19.125 59.063 21.375 87.188-21.375 0-45-1.125-71.438-2.813v39.375c24.75-1.688 48.938-2.813 73.688-2.813v78.75c-31.5 0-57.375-1.125-76.5-2.813v39.375c23.063-1.687 43.875-2.813 63.563-2.813h34.313c10.688 24.75 19.125 47.25 26.438 68.625 6.75 21.375 12.375 41.063 15.75 60.75 17.437-9 33.188-14.063 47.25-15.75-5.063-11.813-11.813-27-19.688-44.438zM1889.957 597.75c23.062 0 46.688 1.125 71.438 2.813v-39.375c-14.063 1.688-37.688 2.813-71.438 2.813h-57.938c-14.063 0-34.313-1.125-60.75-2.813v39.375c19.125-1.688 39.375-2.813 60.75-2.813h57.938zM1861.27 460.5c-14.063-9-26.438-16.875-37.125-23.625-14.063 29.812-29.25 55.125-45 76.5 14.063 5.063 24.75 12.375 31.5 21.375 12.938-14.063 29.25-38.813 50.625-74.25zM1897.832 627c-9-3.375-21.938-10.688-39.375-21.375-5.063 17.438-18.563 41.063-39.375 71.437 14.063 6.75 25.313 14.063 34.313 21.375 20.813-30.375 36-54 44.438-71.438zM2140.832 613.5v-121.5c0-37.125 1.688-76.5 5.063-118.688 3.375-37.125 12.375-77.625 26.438-122.625 14.063-45 33.188-82.125 57.938-111.938-14.063-5.062-28.125-14.062-42.188-26.437-19.125 34.875-34.875 70.313-46.125 105.75-11.25 34.875-19.125 67.5-22.5 97.313-5.063 34.875-9 75.375-10.688 121.5-1.688 45.563-2.813 101.813-2.813 168.75l-31.5-5.063-5.063-426.938c12.375 5.063 21.375 9.562 26.438 12.938-3.375 9-7.875 20.25-12.937 34.313 6.75 3.375 16.875 7.875 29.25 12.938 15.75-40.5 28.125-72 37.125-95.063-10.688-5.062-21.375-11.25-31.5-18.563l-10.688 31.5c-15.75-6.75-28.687-12.938-38.25-18.563-9.563-5.062-20.813-12.375-33.188-21.375-9 15.75-16.875 28.125-23.625 37.125 17.438 9 26.438 23.625 26.438 45l5.063 401.063c-7.313 0-16.875-1.125-29.25-2.813v-131.625c0-40.5-1.125-85.5-2.813-134.438-1.687-35.437-7.312-72-16.875-110.813-9.563-38.813-25.875-78.188-48.938-118.687-12.375 12.375-25.313 21.375-39.375 26.437 24.75 31.5 42.188 67.5 52.875 108 10.688 40.5 16.875 82.688 18.562 126.563v145.125c0 48.937-1.125 88.875-2.813 118.688 21.375-1.688 46.688 1.125 76.5 7.875 29.813 6.75 61.313 17.438 95.063 31.5 5.063-12.375 14.063-26.438 26.438-42.188-16.313-1.688-27-3.375-32.063-5.063zM2296.082 587.063c23.063 0 48.375 1.125 76.5 2.813v-39.375c-12.375 1.688-37.688 2.813-76.5 2.813h-76.5c-21.375 0-40.5-1.125-57.937-2.813v39.375c23.062-1.688 45-2.813 65.813-2.813h68.625zM2326.457 479.063c-9.563-23.062-18-43.313-25.313-60.75 21.375 0 43.313 1.125 65.813 2.813v-39.375c-28.125 1.688-53.438 2.813-76.5 2.813v-92.25c29.813 0 55.125 1.125 76.5 2.813v-39.375c-21.375 1.688-46.688 2.812-76.5 2.812v-95.063c0-23.062 1.125-50.062 2.813-81.563h-47.25c1.687 31.5 2.813 59.625 2.813 84.375v92.25c-23.063 0-42.188-1.125-57.938-2.812v39.375c5.063-1.687 24.75-2.813 57.938-2.813v91.688c-29.813 0-59.063-1.125-87.188-2.813v39.375c26.438-1.687 59.625-2.813 100.125-2.813 6.75 19.125 13.5 38.25 19.688 56.813 6.188 18.563 11.813 41.625 16.875 69.75 10.688-7.313 28.125-14.063 52.875-21.375-6.75-6.188-15.188-20.813-24.75-43.875zM2209.457 539.813c23.062-38.813 37.688-65.813 45-81.563-10.688-5.063-23.063-12.937-37.125-23.625-12.375 31.5-26.438 59.063-42.188 81.563l21.375 10.688 12.938 12.938zM2309.582 629.25c-14.063-9-26.438-17.438-37.125-26.438-14.063 21.375-33.188 45-57.938 71.437 12.375 6.75 23.625 15.75 34.313 26.438 26.438-29.813 46.687-53.438 60.75-71.437zM381.894 504.938c65.812 198.563 223.875 247.5 223.875 247.5s-89.438 28.688-205.875 36.563c-92.25 6.188-217.125-13.5-217.125-13.5s-32.063-343.688 165.938-576.563c1.688-2.25 4.5-5.063 6.75-7.313 0 0 0 0 0 0.563-1.688 65.25-11.813 199.125 26.438 312.75v0zM1004.582 206.25c-9 96.188-36.563 194.063-36.563 194.063s-53.438-141.188-222.188-208.125c-122.625-48.938-268.875-54-338.063-52.312 232.313-196.312 583.313-172.125 583.313-172.125s23.063 139.5 13.5 238.5v0zM377.957 175.312c0 0 302.063-47.25 481.5 131.625 180 178.875 131.625 468.563 131.625 468.563s-317.813 41.625-480.938-120.375c-162.562-162.563-132.188-479.813-132.188-479.813v0zM377.957 175.312z"  horiz-adv-x="2569" />

    
    <glyph glyph-name="xiangzuo2" unicode="&#58919;" d="M819.745 827.148l-615.489-421.815 615.489-421.815z"  horiz-adv-x="1024" />

    
    <glyph glyph-name="xiangyou2" unicode="&#58920;" d="M202.785 828.582l615.588-421.827-615.588-421.827z"  horiz-adv-x="1024" />

    
    <glyph glyph-name="icon_on_the_top" unicode="&#58918;" d="M84.48 247.104c-13.024-12.576-20.384-29.856-20.48-47.936 1.696-40.8 36-72.576 76.8-71.136 21.12-0.096 41.376 8.256 56.32 23.168l314.88 312.704 314.88-312.704c14.944-14.912 35.2-23.264 56.32-23.168 40.8-1.44 75.104 30.336 76.8 71.136-0.096 18.080-7.456 35.36-20.48 47.936l-371.2 369.856c-31.264 30.72-81.376 30.72-112.64 0l-371.2-369.856z"  horiz-adv-x="1024" />

    
    <glyph glyph-name="sanjiaoxing-up" unicode="&#59279;" d="M832.185 191.981h-640.37l320.184 384.016z"  horiz-adv-x="1024" />

    
    <glyph glyph-name="jia1" unicode="&#58947;" d="M880.15737 448.280872H575.934072V752.50417c0 35.915501-29.109546 65.025048-65.025048 65.025048s-65.025048-29.109546-65.025047-65.025048v-304.223298H141.660679a65.025048 65.025048 0 0 1 0-130.050095h304.223298v-304.223298c0-35.915501 29.109546-65.025048 65.025047-65.025048s65.025048 29.109546 65.025048 65.025048V318.230777h304.216073a65.025048 65.025048 0 0 1 65.025047 65.025047 65.010598 65.010598 0 0 1-65.017822 65.025048z"  horiz-adv-x="1024" />

    
    <glyph glyph-name="duihua" unicode="&#58898;" d="M664.506 53.467c-8.724 0-17.261 3.226-24.018 9.393l-49.821 45.461c-25.549-5.883-51.802-8.861-78.213-8.861-83.741 0-162.576 29.232-221.983 82.309-29.11 26.009-51.992 56.351-68.009 90.183-16.671 35.214-25.123 72.636-25.123 111.228 0 48.843 14.005 97.009 40.501 139.29 6.005 9.584 18.643 12.483 28.225 6.478 9.584-6.005 12.483-18.643 6.478-28.225-22.407-35.755-34.25-76.4-34.25-117.542 0-133.861 122.988-242.764 274.16-242.764 26.834 0 53.474 3.479 79.179 10.341 1.584 0.44 3.404 0.693 5.282 0.693 6.833 0 12.884-3.347 16.603-8.49 0.059-0.083 0.075-0.108 0.093-0.132l46.504-42.433 4.419 70.725c0.44 6.842 4.178 12.724 9.626 16.118 70.3 45.458 112.454 118.782 112.454 195.943 0 133.861-122.988 242.764-274.161 242.764-54.8 0-107.692-14.279-152.957-41.293-9.711-5.796-22.283-2.622-28.078 7.089-5.796 9.712-2.622 22.283 7.089 28.078 51.609 30.801 111.758 47.080 173.946 47.080 83.741 0 162.576-29.231 221.984-82.309 29.11-26.009 51.991-56.351 68.009-90.183 16.67-35.214 25.123-72.636 25.123-111.228 0-45.958-12.492-91.604-36.128-132.001-21.024-35.937-50.854-67.812-86.663-92.706l-4.462-71.414c-0.867-13.874-9.411-25.728-22.295-30.94-4.007-1.677-8.664-2.651-13.548-2.653zM322.274 383.192c-0-0-0-0-0-0 0-22.363 18.129-40.492 40.492-40.492 22.363 0 40.492 18.129 40.492 40.492 0 0 0 0 0 0 0 0 0 0 0 0 0 22.363-18.129 40.492-40.492 40.492-22.363 0-40.492-18.129-40.492-40.492 0-0 0-0 0-0zM470.24 383.192c0-0 0-0 0-0 0-22.363 18.129-40.492 40.492-40.492 22.363 0 40.492 18.129 40.492 40.492 0 0 0 0 0 0 0 0 0 0 0 0 0 22.363-18.129 40.492-40.492 40.492-22.363 0-40.492-18.129-40.492-40.492 0-0 0-0 0-0zM613.036 383.192c0-22.363 18.129-40.492 40.492-40.492s40.492 18.129 40.492 40.492c0 22.363-18.129 40.492-40.492 40.492-22.363 0-40.492-18.129-40.492-40.492z"  horiz-adv-x="1024" />

    
    <glyph glyph-name="heart-copy" unicode="&#58895;" d="M983.384 514.5350000000001c0 147.456-119.467 266.923-266.923 266.923-81.4649 0-154.283-36.4089-203.207-93.8662-48.9245 57.4578-121.856 93.8662-203.207 93.8662-147.456 0-266.923-119.467-266.923-266.923 0-77.3689 35.6125-142.109 85.5609-195.811L514.275-51.964000000000055l378.994 366.592c48.0142 50.0622 90.112 120.377 90.112 199.907ZM514.275-51.964000000000055L128.569 318.72400000000004C78.507 372.42600000000004 43.008 437.165 43.008 514.5350000000001c0 147.456 119.467 266.923 266.923 266.923 81.4649 0 154.283-36.4089 203.207-93.8662l1.13778-739.555Z"  horiz-adv-x="1024" />

    
    <glyph glyph-name="liaotian" unicode="&#58936;" d="M272.415 133.374C252.34 113.279 218 127.508 218 155.906V470.72c0 9.389 7.611 17 17 17s17-7.611 17-17v-309.676l47.6 47.613a17 17 0 0 0 12.023 4.98H649V515H283.276c-9.389 0-17 7.611-17 17s7.611 17 17 17h366.896C668.304 549 683 534.298 683 516.165V212.48c0-18.132-14.695-32.841-32.828-32.841H318.666l-46.251-46.264zM376 611v-78.715c0-9.39-7.611-17-17-17s-17 7.61-17 17v79.898C342 630.306 356.703 645 374.834 645h399.332c18.13 0 32.834-14.694 32.834-32.817v-303.366C807 290.694 792.297 276 774.166 276h-56.764c-9.389 0-17 7.611-17 17s7.611 17 17 17H773V611H376zM394 360.5c0 16.296-13.205 29.5-29.503 29.5C348.204 390 335 376.795 335 360.5c0-16.291 13.207-29.5 29.497-29.5C380.792 331 394 344.208 394 360.5z m34 0c0-35.07-28.43-63.5-63.503-63.5C329.428 297 301 325.432 301 360.5c0 35.073 28.426 63.5 63.497 63.5C399.572 424 428 395.574 428 360.5zM556 360.5c0 16.296-13.205 29.5-29.503 29.5C510.204 390 497 376.795 497 360.5c0-16.291 13.207-29.5 29.497-29.5C542.792 331 556 344.208 556 360.5z m34 0c0-35.07-28.43-63.5-63.503-63.5C491.428 297 463 325.432 463 360.5c0 35.073 28.426 63.5 63.497 63.5C561.572 424 590 395.574 590 360.5z"  horiz-adv-x="1024" />

    
    <glyph glyph-name="baozi" unicode="&#58966;" d="M512.4 732.3h-0.3c-125.8-26.2-228.5-73.7-308-142.5-2.1-1.6-4.1-3.5-6-5.4h-0.2c-0.3-0.2-0.4-0.4-0.4-0.6-10.7-9.2-21-19-31-29.3-6.5-6.9-12.8-14-18.7-21.3v-0.3c-3.3-3.7-6.3-7.3-9.3-10.9-1.1-1.2-1.8-2.5-2.2-4.1C88.7 453.1 73 382.6 89 306.70000000000004c18.5-89.6 76.1-160.4 173-212.4 95.1-51.3 200.7-69.2 316.6-53.8 78.6 10.5 146.4 34.2 203.3 71.3l48.7 36.2 13.7 12.6c4.4 4.4 8.9 8.9 13.2 13.4 5.2 5.6 10.2 11.1 15.1 16.7l13.4 17.1 14.4 21.6c37.6 59.7 49.1 123.9 34.4 192.4-7.8 37.3-22.3 71.3-43.4 102.2-0.6 1.1-1.3 2.2-2.3 3.4-2.1 2.9-4.2 5.7-6.4 8.3h-0.2v0.4c-2.2 2.6-4.3 5.2-6.3 7.7s-4 4.9-6.1 7.2v-0.3c-2.3 2.7-4.6 5.3-6.9 7.8-0.2 0.2-0.3 0.4-0.3 0.6-81.2 89.4-195.4 147.1-343 173.2-0.4 0.2-0.7 0.3-0.9 0.3h-0.5c-0.7 0.2-1.4 0.3-2.1 0.3-1.3 0-2.6-0.2-4-0.6Zm-38.6-53.2c-7.7-15-14.2-30.5-19.5-46.5-8.4-25.8-13.5-52.8-15.3-81-0.4-4.3 0.9-8 3.8-11.3 2.8-3.2 6.3-5 10.6-5.1 3.4-0.3 6.4 0.4 8.9 2 0.8 0.5 1.5 1.1 2.3 1.8 3.2 2.8 5.1 6.3 5.5 10.6 3.2 52 19.1 99.5 47.5 142.5 7-8.7 13.5-17.6 19.5-26.8 30.3-46.8 46.8-101.1 49.6-162.9 0.1-4.2 1.8-7.8 4.9-10.7 3-2.9 6.7-4.2 11.1-4 2.3 0.1 4.4 0.6 6.3 1.5 1.6 0.9 3.1 2 4.4 3.4 2.8 3.2 4.2 7 4.1 11.2-2.5 63.9-18.8 120.6-49 170.1 50.7-28.7 97.6-64.2 140.7-106.9 22.4-22.3 43.8-46.3 64.2-72.4 2.7-3.4 6-5.3 10.1-5.7 0.1-0.1 0.2-0.1 0.3-0.1 4.4-0.5 8.3 0.5 11.5 3.2 3.4 2.7 5.4 6.2 6 10.4 0.4 4.2-0.6 8.1-3.1 11.5-21.2 27.1-43.4 52.1-66.7 75.2-20.3 20.1-41.5 38.7-63.4 55.8-12.1 9.3-24.4 18.3-36.9 26.7 79.2-27.9 145-68.3 197.2-121.4 0.7-0.6 1.3-1.4 2-2 0.6-1.2 1.3-2.2 2.3-3 2.3-2.2 4.6-4.5 6.9-6.9 0-0.1 0.1-0.2 0.3-0.2l0.6-0.6c2.1-2.3 4.2-4.7 6.3-7.2 1.8-2.1 3.5-4.2 5.4-6.3 2-2.5 4-5 6.1-7.5 23-30.2 38.4-63.8 46-101 16.8-80.2-6.5-153.7-69.6-220.2-64.6-68.1-151.4-109.3-260.1-123.8-109.2-14.5-208.5 2.2-297.9 50.1-26.2 14.1-49.2 29.7-69.2 46.7-46.7 40-76.1 88.3-88.2 145-14.8 71.8 2.4 138 51.5 198.9 0.2 0.1 0.3 0.4 0.3 0.5 0.2 0 0.4 0.1 0.5 0.4 14.4 17 30.1 33.1 46.9 48 0.3 0.1 0.5 0.2 0.6 0.2 1.8 1.8 3.5 3.4 5.2 4.7v0.2c47 40.5 102.6 73.3 166.7 98.2-35.2-24.7-66.7-52.1-94.4-82.1-29.3-31.8-54.5-66.7-75.5-104.6-2.1-3.9-2.5-8-1.1-12.1 1.1-4.1 3.6-7.1 7.5-9.3 3.6-2.1 7.5-2.5 11.8-1.1 2.3 0.6 4.3 1.8 6.1 3.3 1.1 1.2 2.2 2.5 3.1 4.2 6.3 11.3 13 22.4 20 33.3l22.6 31.4c24 30.6 51.3 58.8 82.1 84.4l30.1 23.4c22 15.7 45.5 30.4 70.5 43.9ZM462.3 537.2c-2.5-1.6-5.5-2.3-8.9-2-4.3 0.1-7.8 1.9-10.6 5.1-2.9 3.3-4.2 7-3.8 11.3 1.8 28.2 6.9 55.2 15.3 81-79.4-50.9-140.4-114.7-183-191.5-2.2-3.9-5.2-6.4-9.3-7.5-4.1-1.4-8.1-1-11.7 1.1-3.9 2.1-6.3 5.2-7.5 9.3-1.3 4.2-1 8.2 1.2 12.1 0.4 0.8 0.9 1.6 1.4 2.4-1.8-1.5-3.8-2.7-6.1-3.3-4.3-1.4-8.2-1-11.8 1.1-3.9 2.2-6.4 5.2-7.5 9.3-1.4 4.1-1 8.2 1.1 12.1 21 37.9 46.2 72.8 75.5 104.6-17.5-11.7-34-24.2-49.5-37.6v-0.3c-1.7-1.3-3.5-2.9-5.2-4.6-0.1 0-0.4-0.1-0.5-0.3a451.8 451.8 0 0 1-46.9-48c-0.2-0.3-0.5-0.3-0.6-0.3 0-0.2-0.1-0.5-0.4-0.6-49-60.9-66.2-127.1-51.5-198.9 10-46.8 31.9-87.9 65.5-123.4 20-17 43-32.6 69.2-46.7 89.4-47.9 188.7-64.6 297.9-50.1 108.7 14.5 195.5 55.7 260.1 123.8 63.1 66.5 86.4 140 69.6 220.2-7.6 37.2-23 70.8-46 101-2.1 2.5-4.1 5-6.1 7.5-1.9 2.1-3.6 4.2-5.4 6.3-2.1 2.5-4.2 4.9-6.3 7.2l-0.6 0.6c-0.2 0-0.3 0.1-0.3 0.2-2.3 2.4-4.6 4.7-6.9 6.9-1 0.8-1.7 1.8-2.3 3-0.7 0.6-1.3 1.4-2 2-44.8 39.6-98.3 71.3-160.3 94.7 21.9-17.1 43.1-35.7 63.4-55.8 31.7-28.9 61.5-61.1 89.5-96.8 2.5-3.5 3.5-7.3 3.1-11.5-0.5-4.2-2.6-7.7-6-10.4-3.3-2.7-7.1-3.7-11.5-3.2-4.3 0.5-7.8 2.4-10.4 5.8-4.2 5.3-8.5 10.7-12.7 15.9-4.1 0.4-7.4 2.3-10.1 5.7-20.4 26.1-41.8 50.1-64.2 72.4-36.7 33.2-76 61.7-117.9 85.3 30.1-49.5 46.4-106.2 48.9-170.1 0.2-4.2-1.1-8-4-11.2-2.9-3-6.5-4.7-10.6-4.9-4.5-0.2-8.3 1.1-11.3 4.1-3.1 2.8-4.7 6.4-4.9 10.6-0.2 2.9-0.3 5.7-0.4 8.4-1.9-0.9-4-1.4-6.3-1.5-4.4-0.2-8.1 1.1-11.1 4-3.1 2.9-4.8 6.5-4.9 10.7-2.8 61.8-19.3 116.1-49.6 162.9-26.4-41.6-41.1-87.4-44.3-137.3-0.3-4.3-2.2-7.8-5.4-10.7-3.1-2.8-6.8-4.1-11.2-3.7-4.2 0.1-7.8 1.9-10.6 5.1-3 3.3-4.2 7-3.8 11.3 0.2 2.4 0.3 4.8 0.5 7.2ZM857.5 173.70000000000004c5.3 5.6 10.3 11.3 15.1 17-4.9-5.6-9.9-11.1-15.1-16.7-4.3-4.5-8.8-9-13.2-13.4 4.5 4.2 8.9 8.6 13.2 13.1Z"  horiz-adv-x="1024" />

    
    <glyph glyph-name="bingtanghulu" unicode="&#58967;" d="M421 557.4c4 11.9 6 24.6 6 38 0 32.8-11.5 60.9-34.8 84.3-23.2 23-51.3 34.5-84.3 34.5-11.9 0-23.2-1.5-33.9-4.5 3.8 11.8 5.7 24.5 5.7 38.2 0 32.8-11.6 60.8-34.9 84.1-23.1 23.2-51.1 34.7-84 34.7-32.8 0-60.8-11.5-84-34.7C53.5 808.7 42 780.7 42 747.9c0-33 11.5-61.1 34.8-84.3 23.2-23.3 51.2-34.9 84-34.9 12.1 0 23.4 1.6 34 4.6-3.8-11.6-5.7-24.3-5.7-37.9 0-32.8 11.6-60.8 34.7-84.1 23.3-23.2 51.3-34.8 84.1-34.8 12.1 0 23.5 1.6 34.3 4.7-3.9-12-5.8-24.6-5.8-38 0-33 11.6-61.1 34.8-84.4 23.2-23.2 51.2-34.8 84.1-34.8 12 0 23.5 1.6 34.2 4.6-4-11.7-6-24.3-6-38 0-32.8 11.5-60.8 34.8-84 23.2-23.3 51.2-34.8 84-34.8 12.1 0 23.5 1.5 34.2 4.5-3.8-11.8-5.7-24.5-5.7-37.9 0-32.9 11.6-60.9 34.8-84 23.3-23.3 51.3-34.9 84.1-34.9 27.2 0 51.2 8 71.9 23.9l133.5-137.5c3.1-3.1 6.7-4.6 10.9-4.6 4.4-0.3 8.2 1.2 11.3 4.3 3.1 3 4.6 6.7 4.6 10.9s-1.5 7.8-4.4 11L843.8 65.29999999999995c16.5 20.9 24.7 45.2 24.7 73.1 0 32.8-11.6 60.8-34.8 84-23.3 23.2-51.3 34.9-84 34.9-12.2 0-23.5-1.6-34.3-4.7 4 11.9 6 24.5 6 38 0 32.9-11.5 61-34.8 84.4-23.2 23.1-51.3 34.7-84.3 34.7-11.9 0-23.2-1.6-33.9-4.9 3.8 11.9 5.7 24.7 5.7 38.4 0 32.8-11.6 60.8-34.8 84C516 550.4 488 562 455.4 562c-12.1 0-23.5-1.5-34.4-4.6Zm-51 100.2c2.2-2.1 4.2-4.3 6-6.5 13.3-15.8 20-34.4 20-55.7 0-24.2-8.7-44.9-26-62.2-17-17-37.7-25.6-62.1-25.6-15.2 0-29.1 3.4-41.7 10.2-7.2 4-14.1 9.2-20.5 15.4h0.3c-17.3 17.3-25.9 38-25.9 62.2 0 24.3 8.6 45.1 25.6 62.2h0.3c17.1 17 37.8 25.6 61.9 25.6 24.5 0 45.1-8.6 62.1-25.6ZM393 505v0.3c17.3 17 38 25.6 62.3 25.6 24.1 0 44.9-8.6 62.1-25.6 2.1-2.1 4-4.2 5.8-6.4 13.2-15.9 19.8-34.5 19.8-55.7 0-24.4-8.6-45.1-25.6-62.2-17.2-17.2-38-25.9-62.1-25.9-15.5 0-29.4 3.5-41.9 10.4-7.2 4-14.1 9.1-20.4 15.5-17 17.1-25.5 37.8-25.5 62.2 0 24.1 8.5 44.8 25.5 61.8ZM223.1 810.1c2.1-2.1 4-4.3 5.8-6.4 13.2-16 19.8-34.5 19.8-55.8 0-24.3-8.5-45.1-25.6-62.2-17.3-17.2-38-25.9-62.2-25.9-15.3 0-29.3 3.5-41.8 10.4-7.3 4-14.1 9.2-20.3 15.5-17.1 17.1-25.7 37.9-25.7 62.2 0 24.2 8.6 44.8 25.7 61.9v0.3c17.2 17.1 38 25.6 62.1 25.6 24.2 0 44.9-8.5 62.2-25.6Zm317.4-457.3c17.1 17.3 37.8 25.9 61.9 25.9 24.4 0 45.1-8.6 62.1-25.9 2-2 4-4 5.7-6.1 13.5-15.9 20.3-34.6 20.3-56.1 0-24.1-8.7-44.9-26-62.1-17-17.1-37.7-25.7-62.1-25.7-15.4 0-29.3 3.5-41.9 10.4-7.1 3.9-13.7 9.1-20 15.3-17.2 17.2-25.9 38-25.9 62.1-0.1 24.4 8.7 45.1 25.9 62.2ZM662 138.39999999999998c0 24.2 8.5 44.9 25.6 62.2 17.3 17 38 25.5 62.2 25.5 24.3 0 45.1-8.5 62.1-25.5 4.4-4.4 8.1-9 11.4-13.8 9.5-14.2 14.2-30.4 14.2-48.4 0-24.4-8.5-45.1-25.6-62.2-17.3-17.1-38-25.6-62.1-25.6-20.4 0-38.3 6-53.5 17.9-3 2.4-5.9 5-8.7 7.7-17.1 17.1-25.6 37.8-25.6 62.2ZM376 651.1c-12.5 7-26.7 10.5-42.2 10.5-24.1 0-44.8-8.6-61.9-25.6h-0.2c-17.1-17.1-25.7-37.8-25.7-62.2 0-21.3 6.7-40.1 20.2-56 12.6-6.8 26.5-10.2 41.7-10.2 24.4 0 45.1 8.6 62.1 25.6 17.3 17.3 26 38 26 62.2 0 21.3-6.6 39.9-20 55.7Zm167-207.9c0 21.2-6.6 39.8-19.8 55.7-12.6 6.9-26.6 10.4-42 10.4-24.2 0-45-8.5-62.2-25.6v-0.2c-17.1-17.2-25.7-37.8-25.7-61.9 0-21.6 6.7-40.3 20.1-56.1 12.5-6.9 26.4-10.4 41.9-10.4 24.1 0 44.9 8.7 62.1 25.9 17.1 17.1 25.6 37.8 25.6 62.2ZM228.9 803.7c-12.6 7-26.6 10.4-42.1 10.4-24.1 0-44.9-8.5-62.1-25.6v-0.3c-17.1-17-25.7-37.7-25.7-61.9 0-21.6 6.8-40.2 20.1-56.1 12.5-6.9 26.5-10.4 41.8-10.4 24.2 0 44.9 8.7 62.2 25.9 17.1 17.1 25.6 37.9 25.6 62.2-0.1 21.3-6.6 39.8-19.8 55.8Zm399.4-446.6c-24.2 0-44.8-8.6-61.9-25.9-17.3-17.1-25.9-37.8-25.9-62.1 0-21.3 6.7-40 20-55.9 12.6-6.9 26.5-10.4 41.9-10.4 24.4 0 45.1 8.6 62.1 25.7 17.3 17.2 26 38 26 62.1 0 21.5-6.8 40.2-20.3 56.1-12.5 6.9-26.4 10.4-41.9 10.4ZM707.7 179c-17.1-17.3-25.6-38-25.6-62.2 0-18.1 4.7-34.2 14.2-48.3 15.2-11.9 33.1-17.9 53.5-17.9 24.1 0 44.8 8.5 62.1 25.6 17.1 17.1 25.6 37.8 25.6 62.2 0 18-4.7 34.2-14.2 48.4-15.3 11.8-33.1 17.8-53.4 17.8-24.2 0-44.9-8.6-62.2-25.6Z"  horiz-adv-x="1024" />

    
    <glyph glyph-name="meishi-jiaxindangao" unicode="&#58990;" d="M947.4 790c-0.4 0.4-0.6 0.7-0.9 1l-0.7 0.6c-0.1 0.2-0.3 0.3-0.4 0.4-2.6 2.2-5.7 3.4-9.1 3.4H88.1c-4.1 0-7.6-1.4-10.6-4.4-2.9-3-4.4-6.5-4.4-10.6v-115c0-2 0.4-4 1.2-5.9 0.9-1.9 2-3.5 3.4-5L115 619c-4.3-11.7-6.3-24.3-6.4-37.5-0.1-17.9 3.7-34.4 11.4-49.5-0.9-0.5-1.8-1.2-2.5-2-2.9-3-4.4-6.5-4.4-10.6v-159.9c0-2.1 0.4-4 1.2-5.9 0.9-1.9 2-3.5 3.4-5l390.1-371.8c2.9-2.8 6.4-4.2 10.4-4.1 3.7 0 6.8 1.1 9.6 3.5l0.8 0.8 366.2 359.3 18 17.7c3 2.9 4.5 6.5 4.5 10.7V519.4c0 4.1-1.4 7.6-4.4 10.6-1.8 1.9-3.9 3.1-6.1 3.8 7.1 14.6 10.6 30.5 10.5 47.7 0 13.5-2.3 26.1-6.6 38.1l35.7 35.1c3 2.9 4.5 6.6 4.5 10.7v115 0.1 0.1l-0.2 2.4c-0.1 0.1-0.1 0.1-0.1 0.2-0.4 2.6-1.5 4.8-3.2 6.8z m-26.5-45.4v-72.9l-38.1-37.4-1.2-1.2-114.9-112.8c-0.2 0-0.2-0.2-0.3-0.3L617.8 374.2l-0.1-0.1c-0.1 0-0.2-0.2-0.3-0.2l-8.5-8.5c-0.4-0.3-0.8-0.6-1.1-1L518 276.3l-93.7 89.2c-0.4 0.5-0.9 0.9-1.3 1.4l-10.2 9.6-0.3 0.3-150.7 143.6c-0.1 0.1-0.1 0.2-0.2 0.3L144 632.9c-0.5 0.5-1 0.9-1.4 1.3l-18.1 17.2-21.4 20.4v73.6l404.7-385.8c2.9-2.8 6.4-4.2 10.4-4.2 4.1 0 7.5 1.5 10.4 4.3l392.3 384.9z m-21.7 20.8l-22.9-22.5L534 407.1l-16-15.8-392.4 374.1h773.6z m-36-192.4l23 22.5c0.7-4.5 1.1-9.2 1.1-14-0.1-25.6-11.1-47.5-32.8-65.5l-0.1-0.1c-4.9-4.1-10-7.8-15.3-11-11.1-6.8-23.3-11.5-36.4-14.4-1.7 5.7-4 11.2-6.7 16.5l67.2 66z m-13.9-96.9l-19.9-19.5-24.3-23.8c1.2 5.5 1.9 11.2 2.3 17 0.1 2.5 0.2 5.1 0.2 7.6 0 1.1 0 2.4-0.1 3.5 15 3.1 28.9 8.2 41.8 15.2z m38-4.6V371L518 8.5 155.6 354l-12.5 11.9V467l364.7-347.7c2.9-2.8 6.4-4.2 10.4-4.1 4.1 0 7.5 1.4 10.4 4.2l358.7 352.1z m-110.8 0.1v-0.6c0.1-0.1 0.1-0.2 0.2-0.4 0.6-4.2 0.9-8.6 0.9-13.2-0.1-25.6-11.1-47.4-32.8-65.5h-0.1c-4.9-4.1-10-7.8-15.3-11-19.4-11.8-41.8-17.5-67-17.5-4.2 0-8.4 0.2-12.4 0.5l100.7 98.7 22.3 21.9c1.5-4.1 2.7-8.4 3.5-12.7v-0.2zM659.6 309.9c0 8.2-0.8 16-2.4 23.5h5.2c17.1 0 33.3 2.2 48.3 6.7L695 324.8l-25.4-25-11.9-11.7c1.3 7 2 14.3 1.9 21.8zM139.7 595.4l19.5-18.5 73.1-69.8c-2.8-5.5-5.1-11.1-6.8-17-12.8 2.5-24.5 6.8-35.4 12.9-6.6 3.6-12.9 8-18.9 13-21.5 18-32.5 39.8-32.6 65.5 0 4.8 0.4 9.4 1.1 13.9z m115.7-110.3l18.8-17.8 108.1-103.1c-5.4-0.6-10.8-0.8-16.4-0.8-23.8 0-45.1 5.1-63.8 15.5-6.6 3.7-12.9 8-18.8 13-21.6 18-32.5 39.9-32.6 65.5 0 4.4 0.3 8.6 0.9 12.7 0.1 0.3 0.1 0.5 0.1 0.8 0.8 4.9 2 9.6 3.7 14.2z m-34.7-24.6v-3.1c0-3.3 0-6.5 0.3-9.7 0.4-5.4 1.2-10.7 2.4-15.8l-25.9 24.7-20 19c13.3-7.1 27.7-12.2 43.2-15.1zM625 337.3c3.1-8.6 4.7-17.7 4.6-27.4-0.1-25.6-11.1-47.4-32.8-65.5h-0.1c-4.9-4.1-10-7.8-15.3-11-19.4-11.8-41.8-17.5-67-17.5-23.9 0-45.1 5.1-63.9 15.5-6.5 3.7-12.8 8-18.7 13-21.6 18-32.5 39.9-32.7 65.5-0.1 9.7 1.5 18.9 4.7 27.5 1.7 0.4 3.5 0.7 5.2 1.2l15.9-15 82.9-79c2.7-2.7 5.9-4 9.6-4.2h2.2c3.4 0.4 6.4 1.8 9 4.3l73.5 72.2 21.2 20.7c0.6-0.1 1.2-0.2 1.7-0.3z m-253.4-3.9c-1-4.5-1.7-9.2-2.1-14-0.2-3.1-0.4-6.3-0.4-9.5 0-6.3 0.4-12.3 1.4-18.3l-33 31.5-17 16.2c14.2-3.9 29.3-5.9 45.4-5.9h5.7z m187.9-141.7L542.4 175 518 151l-26.8 25.6-13.8 13.1c11.6-2.5 24-3.8 37-3.8 15.9 0 31 2 45.1 5.8zM766.4 520c0.1 0.1 0.1 0.3 0.3 0.3l114.9 112.8 1.2 1.2 38.1 37.4v41.5L534.4 333.9c-3.4-3.3-7.4-5-12.1-5-4.8 0-8.8 1.6-12.3 4.9L124.5 701.3v-49.9l18.1-17.2c0.4-0.4 0.9-0.8 1.4-1.3l117.6-112.2c0.1-0.1 0.1-0.2 0.2-0.3l150.7-143.6 0.3-0.3 10.2-9.6c0.4-0.5 0.9-0.9 1.3-1.4l93.7-89.2 89.8 88.1c0.3 0.4 0.7 0.7 1.1 1l8.5 8.5c0.1 0 0.2 0.2 0.3 0.2l0.1 0.1L766.4 520zM181.8 742.9L534 407.1l342.3 335.8H181.8zM863.8 563c0 3.4-0.3 6.8-0.6 10L796 507c2.7-5.3 5-10.8 6.7-16.5 13.1 2.9 25.3 7.6 36.4 14.4 16.3 16.6 24.5 35.9 24.7 58.1zM807.4 449.8c-0.4-5.8-1.1-11.5-2.3-17l24.3 23.8c-7-2.8-14.4-5.1-22-6.8zM887.3 371v51.1L540.4 81.7c-3.4-3.4-7.4-5-12.1-5-4.8-0.1-8.8 1.6-12.3 4.8L155.6 425.1V354L518 8.5 887.3 371zM752.9 453.3c-0.5 3.2-1.3 6.2-2.2 9.3L650 363.9c4-0.3 8.2-0.5 12.4-0.5 25.2 0 47.6 5.7 67 17.5 16.3 16.5 24.5 35.8 24.6 58 0 4.6-0.2 9-0.9 13.2-0.1 0.2-0.1 0.3-0.1 0.4v0.6c-0.1 0-0.1 0.1-0.1 0.2zM672.4 323.4h-5.2c1.6-7.5 2.4-15.3 2.4-23.5v-0.1l25.4 25c-7.3-0.9-14.8-1.4-22.6-1.4zM159.2 576.9c-0.4-3-0.6-6.2-0.6-9.4 0.1-25.2 10.6-46.7 31.5-64.5 10.9-6.1 22.6-10.4 35.4-12.9 1.7 5.9 4 11.5 6.8 17l-73.1 69.8zM274.2 467.3c-1.1-3.4-1.9-6.9-2.5-10.4 0-0.3 0-0.5-0.1-0.8-0.6-4.1-0.9-8.3-0.9-12.7 0.1-25.1 10.6-46.6 31.4-64.5 18.7-10.4 40-15.5 63.8-15.5 5.6 0 11 0.2 16.4 0.8L274.2 467.3zM223.4 431.9c-1.2 5.1-2 10.4-2.4 15.8-8.2 2.3-16 5.3-23.5 8.9l25.9-24.7zM424.9 323.6c-0.4-0.1-0.8-0.2-1.1-0.2-3.2-8.6-4.8-17.8-4.7-27.5 0.2-25.1 10.7-46.6 31.4-64.5 18.8-10.4 40-15.5 63.9-15.5 25.2 0 47.6 5.7 67 17.5 16.3 16.5 24.5 35.8 24.6 58 0.1 9-1.2 17.5-3.9 25.5l-73.5-72.2c-2.6-2.5-5.6-3.9-9-4.3l-1.1-1-1.1 1c-3.7 0.2-6.9 1.5-9.6 4.2l-82.9 79zM369.1 309.9c0 3.2 0.2 6.4 0.4 9.5-11.1 0.3-21.8 1.5-32 3.7l33-31.5c-1 6-1.4 12-1.4 18.3zM522.4 173.9c-10.9 0-21.3 0.9-31.2 2.7L518 151l24.4 24c-6.5-0.7-13.2-1.1-20-1.1zM894.8 336.1v0.2L528.6-23l-0.8-0.8 0.2-0.2 366.8 360.1z"  horiz-adv-x="1024" />

    


  </font>
</defs>
</svg>
