<svg xmlns="http://www.w3.org/2000/svg" xmlns:xlink="http://www.w3.org/1999/xlink" width="130" height="30" viewBox="0 0 130 30">
    <defs>
        <path id="a" d="M0 .332h61.94V30H0z"/>
    </defs>
    <g fill="none" fill-rule="evenodd">
        <path fill="#C90000" d="M76.672 9.911h9.052V4.517c-2.418.248-5.053.372-7.843.372l-.558-1.519c6.851-.031 12.462-.806 16.802-2.325l.868 1.426c-2.17.806-4.712 1.395-7.564 1.829v5.611h9.145v1.643h-9.145v5.425h7.068v12.028h-1.674v-1.736h-12.4V29.1h-1.674V16.979h6.975v-5.425h-9.052V9.911zm3.751 15.748h12.4V18.56h-12.4v7.099zM70.782 1.293c2.077 1.364 3.813 2.759 5.239 4.123l-1.147 1.147c-1.302-1.333-3.038-2.728-5.239-4.185l1.147-1.085zm-.713 7.378c2.108 1.55 3.875 3.1 5.301 4.65l-1.178 1.178c-1.302-1.488-3.1-3.038-5.332-4.681l1.209-1.147zm4.123 8.184l1.519.62a105.394 105.394 0 0 1-4.65 11.191l-1.643-.713a99.706 99.706 0 0 0 4.774-11.098zm26.691-13.733h11.036v1.581h-11.036V3.122zm-1.24 8.339h13.485v1.674h-7.285c-1.395 5.115-2.604 8.68-3.627 10.695 2.759-.496 5.487-1.271 8.215-2.294-.868-1.798-1.705-3.441-2.573-4.929l1.426-.682c1.519 2.666 2.945 5.549 4.309 8.711l-1.488.744c-.372-.868-.713-1.705-1.054-2.449-3.317 1.178-6.913 2.108-10.788 2.821l-.403-1.581c.155-.062.279-.093.341-.155.992-1.302 2.325-4.929 3.999-10.881h-4.557v-1.674zM118.119.828h1.674v6.479h6.82c0 9.362-.155 15.19-.434 17.422-.31 2.635-1.736 3.968-4.309 3.968a67.07 67.07 0 0 1-2.79-.093l-.403-1.457c1.178.031 2.17.062 3.038.062 1.612 0 2.573-1.023 2.852-3.007.248-1.736.372-6.851.434-15.283h-5.208v.465c-.093 8.959-2.263 15.5-6.51 19.654l-1.271-1.116c3.999-3.844 6.045-10.044 6.107-18.538v-.465h-4.371V7.307h4.371V.828z"/>
        <g transform="translate(3)">
            <mask id="b" fill="#fff">
                <use xlink:href="#a"/>
            </mask>
            <path fill="#000" d="M61.94 14.891v-1.869h-3.209a57.08 57.08 0 0 0 1.653-6.28l-1.781-.581-.682 3.512a47.744 47.744 0 0 1-.843 3.35h-4.895v1.868h3.729v4.898h-3.047v1.9h3.047v8.053h1.977V21.69h3.727v-1.901H57.89v-4.898h4.051zm-27.454-2.223l1.654-.483a49.343 49.343 0 0 0-1.137-5.83l-1.555.482a72.302 72.302 0 0 1 1.038 5.831zm16.824-1.547c-.066-1.675-.099-4.22-.099-7.633l1.006-.193a1.83 1.83 0 0 0 .389-.097l-.617-1.806c-2.83.667-6.05 1.204-9.66 1.613v5.41c0 1.204-.01 2.245-.03 3.127 0 1.074-.023 2.05-.066 2.93-.108 1.977-.291 3.727-.55 5.25-.606 3.438-1.804 6.422-3.599 8.956l1.686 1.226c1.858-2.835 3.09-6.155 3.695-9.955.28-1.675.464-3.628.551-5.863.065-.966.096-2.051.096-3.254.023-.987.034-2.169.034-3.542V4.582L45.7 4.39l.032 22.904-.828.144.227 1.527c.661-.116 3.523-.99 4.207-1.334.111.564.227 1.041.317 1.821l1.555-.514s-1.421-5.189-1.767-6.35l-1.123.296c.366 1.46.617 2.483.789 3.398-.575.264-1.262.49-1.594.55l.033-22.668a36.609 36.609 0 0 0 1.847-.32c.085 5.947.27 10.307.55 13.077.477 5.176 1.503 9.45 3.08 12.82l1.62-1.063c-1.47-2.813-2.442-6.85-2.916-12.112a77.92 77.92 0 0 1-.42-5.445zm4.86-6.99h-4.05v1.836h9.43V4.132H58.05l-.194-.837c-.066-.344-.13-.633-.196-.87-.171-.666-.367-1.3-.583-1.902l-1.88.515.552 1.613.42 1.48zm-14.552 0h-3.209a37.832 37.832 0 0 0-1.071-3.8l-1.815.58.552 1.643c.172.6.313 1.126.42 1.578h-4.019v1.835h9.142V4.132zm-.486 15.302h-3.275l.097-1.579c.023-.386.055-1.436.097-3.156h3.437V12.83h-2.66a63.287 63.287 0 0 0 1.525-6.12l-1.816-.483c-.432 2.512-.885 4.713-1.36 6.603H32.12v1.87h3.985c0 1.46-.01 2.469-.031 3.028 0 .257-.012.526-.033.804l-.066.902h-3.564v1.902h3.403c-.28 1.653-.626 2.912-1.037 3.767-.498 1.077-1.318 2.105-2.462 3.094l1.555 1.546c1.232-1.224 2.139-2.535 2.722-3.93.262-.622.476-1.32.648-2.094.151-.644.303-1.44.454-2.383h3.437v-1.902zM53.027 6.74c.216.838.432 1.826.648 2.965l.259 1.546c.022.192.064.45.13.773.065.366.107.622.129.773l1.655-.484a128.27 128.27 0 0 0-.586-2.963 43.127 43.127 0 0 0-.712-3.06l-1.523.45zM20.777.523h-2.074v3.835h-8.267V.523H8.362v3.835H.455v2.094h7.907v3.221h.778c-1.123 1.87-2.484 3.716-4.084 5.542-1.427 1.63-3.11 3.329-5.056 5.087l1.458 1.677a41.783 41.783 0 0 0 2.69-2.577l2.772-2.813V30h2.108V14.239c.662-1.112 1.187-1.894 2.057-3.696l-1.491-.87h.842V6.452h8.267v3.3h2.073v-3.3h7.876V4.358h-7.876V.523zm5.881 25.515c-.15.896-.557 1.396-1.79 1.396h-5.013c-.684 0-1.512-.61-1.512-2.102v-5.48c4.002-1.655 6.987-3.881 9.353-5.823l-1.15-1.715c-1.395 1.312-5.31 4.1-8.203 5.349V9.737h-2.14v8.549l-3.532 1.161.572 1.898 2.96-.994v5.594c0 2.208 1.63 3.379 3.585 3.379h5.294c1.452 0 3.057-.584 3.36-2.58.131-.859.126-1.998.126-2.887l-1.767-.908c-.022 1.59.019 2.098-.143 3.09z" mask="url(#b)"/>
        </g>
    </g>
</svg>
